<svg width="258" height="16" viewBox="0 0 258 16" fill="none" xmlns="http://www.w3.org/2000/svg">
<path fill-rule="evenodd" clip-rule="evenodd" d="M257.284 8.11266C256.213 8.66206 255.874 10.0966 253.73 10.6508C253.976 11.0474 254.186 11.4712 254.353 11.9236C254.601 12.6419 254.883 13.8934 254.182 14.4434C252.653 12.0268 245.331 9.97936 241.951 8.77486C241.676 9.18926 241.228 9.45546 240.718 9.44806C240.242 9.44326 239.818 9.19606 239.552 8.81966H139.327C139.072 8.93046 138.754 9.02855 138.336 9.09265C138.5 9.25815 138.641 9.43255 138.75 9.61955C138.916 9.91555 139.104 10.4292 138.638 10.6551C137.902 9.93996 135.166 9.30606 132.846 8.81966H129.594C129.529 8.97016 129.382 9.10055 129.187 9.18445C129.996 10.6601 131.338 13.7939 132.81 14.5618C132.471 14.8717 131.689 14.7542 131.244 14.6454C130.933 14.5671 130.645 14.4658 130.374 14.3447C130.044 15.3113 129.391 15.2903 128.802 15.9539C128.442 15.4876 127.545 15.3555 127.156 14.4164C126.912 14.5273 126.653 14.6273 126.375 14.7061C125.933 14.824 125.16 14.9649 124.805 14.6608C126.277 13.9569 127.405 10.6956 128.085 9.18445C127.894 9.10055 127.747 8.97016 127.682 8.81966H124.462C122.142 9.30606 119.403 9.93996 118.67 10.6551C118.203 10.4292 118.393 9.91555 118.558 9.61955C118.668 9.43505 118.809 9.25815 118.971 9.09265C118.553 9.02855 118.236 8.93046 117.981 8.81966H17.7537C17.4855 9.19606 17.0646 9.44326 16.5875 9.44806C16.0812 9.45546 15.6297 9.18586 15.357 8.77486C11.9747 9.97936 4.6505 12.0268 3.1226 14.4434C2.4231 13.8934 2.7037 12.6419 2.9523 11.9236C3.1192 11.4732 3.33069 11.0475 3.57449 10.6483C1.43379 10.0967 1.0939 8.66206 0.0234985 8.11266C1.4958 7.12396 1.4207 6.07795 3.5909 5.47505C3.3077 5.04955 3.066 4.59375 2.8732 4.10475C2.6099 3.39245 2.30229 2.14946 2.99339 1.57796C4.78969 3.88906 11.9412 5.82116 15.3057 7.01056C15.5662 6.56246 16.0279 6.26115 16.5529 6.25485C17.1672 6.24805 17.6978 6.64035 17.9317 7.20645H118.076C118.299 7.11375 118.584 7.03296 118.984 6.96436C118.793 6.79006 118.633 6.60095 118.501 6.40025C118.327 6.10715 118.122 5.59465 118.582 5.36165C119.505 6.09015 122.532 6.72745 124.906 7.20645H127.68C127.747 7.05165 127.892 6.92185 128.088 6.83545C127.28 5.36305 125.936 2.22656 124.465 1.46036C124.805 1.14826 125.582 1.27095 126.033 1.37585C126.34 1.45695 126.629 1.55845 126.899 1.67805C127.231 0.711455 127.884 0.729848 128.47 0.0688477C128.831 0.535948 129.73 0.668353 130.118 1.60835C130.362 1.49355 130.621 1.39745 130.898 1.31575C131.342 1.19815 132.114 1.05956 132.471 1.36086C130.998 2.06586 129.869 5.32735 129.187 6.83545C129.383 6.92385 129.531 7.05165 129.593 7.20645H132.4C134.775 6.72745 137.803 6.09015 138.726 5.36165C139.186 5.59465 138.98 6.10715 138.805 6.40025C138.675 6.60095 138.513 6.79086 138.324 6.96436C138.722 7.03296 139.009 7.11375 139.232 7.20645H239.372C239.606 6.64035 240.138 6.24805 240.753 6.25485C241.28 6.25965 241.74 6.56246 242 7.00916C245.367 5.82116 252.516 3.88906 254.315 1.57796C255.004 2.14746 254.693 3.39245 254.434 4.10475C254.242 4.59375 253.995 5.05125 253.714 5.47505C255.886 6.07795 255.81 7.12396 257.284 8.11266Z" fill="#D8C0B4"/>
</svg>
