<svg width="80" height="80" viewBox="0 0 80 80" fill="none" xmlns="http://www.w3.org/2000/svg">
<path fill-rule="evenodd" clip-rule="evenodd" d="M58.3333 11.6665C62.2333 11.6665 66.3 12.1665 70 13.3332C72.5 14.1665 74.6666 15.1665 76.6666 16.6665V65.3332C76.6666 66.1665 75.8333 66.9998 75 66.9998C74.6666 66.9998 74.5 66.9998 74.1666 66.8332C69.5 64.3332 63.8333 63.3332 58.3333 63.3332C52.6666 63.3332 44.5 65.4998 40 68.3332C35.1666 64.6665 28.1666 63.3332 21.6666 63.3332C16.8333 63.3332 10.3333 64.8332 5.83331 66.9998C5.66665 66.9998 5.54165 67.0415 5.41665 67.0832C5.29165 67.1248 5.16665 67.1665 4.99998 67.1665C4.16665 67.1665 3.33331 66.3332 3.33331 65.4998V16.6665C8.16665 12.9998 15.1666 11.6665 21.6666 11.6665C28.1666 11.6665 35.1666 12.9998 40 16.6665C44.8333 12.9998 51.8333 11.6665 58.3333 11.6665ZM58.3333 56.6665C62.3333 56.6665 66.3333 57.1665 70 58.3332V19.9998C66.3333 18.8332 62.3333 18.3332 58.3333 18.3332C52.6666 18.3332 44.5 20.4998 40 23.3332V61.6665C44.5 58.8332 52.6666 56.6665 58.3333 56.6665Z" fill="url(#paint0_linear)"/>
<defs>
<linearGradient id="paint0_linear" x1="40" y1="11.6665" x2="40" y2="68.3332" gradientUnits="userSpaceOnUse">
<stop stop-color="#DB156D"/>
<stop offset="0.505208" stop-color="#00924F"/>
<stop offset="1" stop-color="#F6C10B"/>
</linearGradient>
</defs>
</svg>
