<svg width="32" height="32" viewBox="0 0 32 32" fill="none" xmlns="http://www.w3.org/2000/svg">
<g clip-path="url(#clip0)">
<path d="M11.7624 6.19961C11.7624 7.00586 11.7624 10.6059 11.7624 10.6059H8.53745V15.9934H11.7624V31.9996H18.3937V15.9934H22.8437C22.8437 15.9934 23.2624 13.4121 23.4624 10.5871C22.8812 10.5871 18.4187 10.5871 18.4187 10.5871C18.4187 10.5871 18.4187 7.45586 18.4187 6.90586C18.4187 6.35586 19.1437 5.61211 19.8562 5.61211C20.5687 5.61211 22.0749 5.61211 23.4687 5.61211C23.4687 4.88087 23.4687 2.34336 23.4687 0.0058648C21.6062 0.0058648 19.4874 0.0058648 18.5562 0.0058648C11.5999 -0.000385198 11.7624 5.39336 11.7624 6.19961Z" fill="white"/>
</g>
<defs>
<clipPath id="clip0">
<rect width="32" height="32" fill="white"/>
</clipPath>
</defs>
</svg>
