<svg width="80" height="80" viewBox="0 0 80 80" fill="none" xmlns="http://www.w3.org/2000/svg">
<path fill-rule="evenodd" clip-rule="evenodd" d="M66.3413 11.4641L68.5363 13.6597C69.4721 14.5946 69.9984 15.8629 69.9996 17.1859V19.7141C70.0162 21.0601 69.4885 22.3557 68.5363 23.3069L62.3837 29.3613C62.0715 29.6762 61.6464 29.8533 61.2031 29.8533C60.7597 29.8533 60.3347 29.6762 60.0224 29.3613L50.6772 19.8805C50.0434 19.2337 50.0434 18.1986 50.6772 17.5518L56.6967 11.4641C57.6476 10.5116 58.9429 9.98372 60.2885 10.0004H62.816C64.1386 10.0015 65.4066 10.528 66.3413 11.4641ZM56.0649 35.615C56.6987 34.9682 56.6987 33.9331 56.0649 33.2863L46.5534 23.9053C46.2411 23.5904 45.8161 23.4133 45.3727 23.4133C44.9293 23.4133 44.5043 23.5904 44.1921 23.9053L17.3536 50.7511C16.7047 51.3944 16.1953 52.1644 15.857 53.0132L10.1368 67.4508C9.81278 68.2002 10.0805 69.0741 10.7687 69.5133C11.24 69.984 11.9467 70.128 12.5646 69.8792L26.9982 64.0244C27.8468 63.686 28.6166 63.1764 29.2597 62.5274L56.0649 35.615Z" fill="url(#paint0_linear)"/>
<defs>
<linearGradient id="paint0_linear" x1="40" y1="10" x2="40" y2="69.9996" gradientUnits="userSpaceOnUse">
<stop stop-color="#DB156D"/>
<stop offset="0.505208" stop-color="#00924F"/>
<stop offset="1" stop-color="#F6C10B"/>
</linearGradient>
</defs>
</svg>
