<svg width="32" height="32" viewBox="0 0 32 32" fill="none" xmlns="http://www.w3.org/2000/svg">
<path d="M22.1687 0.525391H9.89369C4.90619 0.525391 0.849945 4.58789 0.849945 9.58164V21.8629C0.849945 26.8566 4.90619 30.9191 9.89369 30.9191H22.1687C27.1562 30.9191 31.2124 26.8566 31.2124 21.8629V9.57539C31.2124 4.58789 27.1562 0.525391 22.1687 0.525391ZM28.1562 21.8629C28.1562 25.1754 25.4749 27.8566 22.1687 27.8566H9.89369C6.58744 27.8566 3.89995 25.1691 3.89995 21.8629V9.57539C3.89995 6.26289 6.58119 3.58164 9.89369 3.58164H22.1687C25.4749 3.58164 28.1562 6.26914 28.1562 9.57539V21.8629ZM16.0312 7.85664C11.6999 7.85664 8.17494 11.3816 8.17494 15.7191C8.17494 20.0566 11.6999 23.5754 16.0312 23.5754C20.3624 23.5754 23.8874 20.0504 23.8874 15.7191C23.8874 11.3879 20.3624 7.85664 16.0312 7.85664ZM16.0312 20.5191C13.3812 20.5191 11.2312 18.3691 11.2312 15.7191C11.2312 13.0691 13.3812 10.9129 16.0312 10.9129C18.6812 10.9129 20.8312 13.0629 20.8312 15.7191C20.8312 18.3754 18.6812 20.5191 16.0312 20.5191ZM23.8999 6.03164C22.8624 6.03164 22.0187 6.87539 22.0187 7.91289C22.0187 8.95039 22.8624 9.79414 23.8999 9.79414C24.9374 9.79414 25.7812 8.95039 25.7812 7.91289C25.7812 6.87539 24.9374 6.03164 23.8999 6.03164Z" fill="white"/>
</svg>
