<svg width="80" height="80" viewBox="0 0 80 80" fill="none" xmlns="http://www.w3.org/2000/svg">
<path fill-rule="evenodd" clip-rule="evenodd" d="M63.3333 6.6665H23.3333C17.8105 6.6665 13.3333 11.1437 13.3333 16.6665V63.3332C13.3333 68.856 17.8105 73.3332 23.3333 73.3332H65C65.9205 73.3332 66.6667 72.587 66.6667 71.6665V9.99984C66.6667 8.15889 65.1743 6.6665 63.3333 6.6665ZM20 16.6665C20 14.8256 21.4924 13.3332 23.3333 13.3332H60V53.3332H23.3333C22.1981 53.3315 21.0709 53.5231 20 53.8998V16.6665ZM23.3333 59.9998C21.4924 59.9998 20 61.4922 20 63.3332C20 65.1741 21.4924 66.6665 23.3333 66.6665H60V59.9998H23.3333ZM28.3333 26.6665H51.6667C52.5872 26.6665 53.3333 25.9203 53.3333 24.9998V21.6665C53.3333 20.746 52.5872 19.9998 51.6667 19.9998H28.3333C27.4129 19.9998 26.6667 20.746 26.6667 21.6665V24.9998C26.6667 25.9203 27.4129 26.6665 28.3333 26.6665ZM38.3333 39.9998H28.3333C27.4129 39.9998 26.6667 39.2536 26.6667 38.3332V34.9998C26.6667 34.0794 27.4129 33.3332 28.3333 33.3332H38.3333C39.2538 33.3332 40 34.0794 40 34.9998V38.3332C40 39.2536 39.2538 39.9998 38.3333 39.9998Z" fill="url(#paint0_linear)"/>
<defs>
<linearGradient id="paint0_linear" x1="40" y1="6.6665" x2="40" y2="73.3332" gradientUnits="userSpaceOnUse">
<stop stop-color="#DB156D"/>
<stop offset="0.505208" stop-color="#00924F"/>
<stop offset="1" stop-color="#F6C10B"/>
</linearGradient>
</defs>
</svg>
