<svg width="589" height="58" viewBox="0 0 589 58" fill="none" xmlns="http://www.w3.org/2000/svg">
<path d="M35.046 12.222C35.046 12.654 34.992 13.086 34.884 13.518C34.632 14.526 34.11 15.516 33.318 16.488C32.562 17.46 31.68 18.378 30.672 19.242C29.664 20.07 28.62 20.808 27.54 21.456C26.496 22.104 25.56 22.644 24.732 23.076V23.346L26.406 23.67C27.126 23.85 27.846 24.084 28.566 24.372C29.322 24.66 30.006 25.002 30.618 25.398C31.23 25.794 31.77 26.28 32.238 26.856C32.706 27.396 33.03 28.044 33.21 28.8C33.282 29.016 33.336 29.232 33.372 29.448C33.444 29.664 33.48 29.916 33.48 30.204C33.48 30.708 33.444 31.266 33.372 31.878C33.336 32.454 33.264 32.976 33.156 33.444C32.76 35.028 32.058 36.468 31.05 37.764C30.078 39.024 28.908 40.158 27.54 41.166C26.208 42.138 24.732 42.966 23.112 43.65C21.528 44.334 19.908 44.874 18.252 45.27C16.092 45.81 14.04 46.08 12.096 46.08C10.728 46.08 9.36 45.918 7.992 45.594C6.372 45.198 4.896 44.55 3.564 43.65C2.232 42.75 1.368 41.49 0.972 39.87C0.828 39.402 0.756 38.826 0.756 38.142C0.756 37.998 0.774 37.872 0.81 37.764C0.846 37.62 0.882 37.494 0.918 37.386C1.098 36.558 1.62 35.82 2.484 35.172C3.348 34.488 4.302 33.894 5.346 33.39C6.174 32.994 6.984 32.67 7.776 32.418C8.604 32.166 9.324 31.95 9.936 31.77H10.098V32.85C9.486 33.174 8.946 33.606 8.478 34.146C8.046 34.65 7.74 35.244 7.56 35.928C7.488 36.108 7.452 36.27 7.452 36.414C7.452 36.522 7.452 36.666 7.452 36.846C7.452 37.098 7.434 37.332 7.398 37.548C7.362 37.764 7.38 37.98 7.452 38.196C7.74 39.384 8.388 40.338 9.396 41.058C10.44 41.778 11.556 42.282 12.744 42.57C13.68 42.786 14.616 42.894 15.552 42.894C16.596 42.894 17.568 42.786 18.468 42.57C20.412 42.066 22.122 41.238 23.598 40.086C25.11 38.898 26.118 37.332 26.622 35.388C26.73 34.956 26.784 34.452 26.784 33.876C26.784 33.264 26.784 32.724 26.784 32.256C26.784 31.968 26.748 31.68 26.676 31.392C26.64 31.104 26.586 30.834 26.514 30.582C26.19 29.358 25.578 28.368 24.678 27.612C23.814 26.82 22.77 26.28 21.546 25.992C20.826 25.812 20.124 25.722 19.44 25.722C18.828 25.722 18.288 25.74 17.82 25.776C17.352 25.812 16.884 25.884 16.416 25.992C16.092 26.064 15.624 26.226 15.012 26.478V25.452C15.588 25.02 16.254 24.552 17.01 24.048C17.766 23.544 18.45 23.13 19.062 22.806C19.818 22.41 20.484 22.158 21.06 22.05C21.636 21.906 22.32 21.69 23.112 21.402C24.408 20.898 25.488 20.196 26.352 19.296C27.252 18.396 27.864 17.316 28.188 16.056C28.26 15.732 28.314 15.426 28.35 15.138C28.422 14.85 28.458 14.526 28.458 14.166C28.458 13.59 28.404 13.068 28.296 12.6C28.08 11.664 27.648 10.944 27 10.44C26.388 9.9 25.632 9.522 24.732 9.306C24.3 9.198 23.832 9.126 23.328 9.09C22.86 9.054 22.374 9.036 21.87 9.036C21.114 9.036 20.412 9.072 19.764 9.144C19.116 9.216 18.486 9.324 17.874 9.468C17.226 9.648 16.578 9.864 15.93 10.116C15.318 10.332 14.67 10.602 13.986 10.926C13.518 11.646 13.158 12.294 12.906 12.87C12.654 13.41 12.402 13.968 12.15 14.544C11.934 15.12 11.646 15.75 11.286 16.434C10.962 17.118 10.476 17.946 9.828 18.918H8.478C8.802 17.262 9.09 15.786 9.342 14.49C9.522 13.698 9.648 13.068 9.72 12.6C9.828 12.096 9.918 11.646 9.99 11.25C10.098 10.854 10.17 10.512 10.206 10.224C10.278 9.936 10.332 9.774 10.368 9.738C10.62 9.018 10.962 8.334 11.394 7.686C11.826 7.038 12.294 6.426 12.798 5.85C13.302 5.238 13.824 4.68 14.364 4.176C14.94 3.636 15.462 3.132 15.93 2.664H16.254C16.074 3.816 15.822 4.806 15.498 5.634C15.174 6.426 14.868 7.344 14.58 8.388L14.796 8.496C15.732 7.992 16.776 7.506 17.928 7.038C19.116 6.57 20.322 6.192 21.546 5.904C22.374 5.688 23.202 5.526 24.03 5.418C24.858 5.274 25.632 5.202 26.352 5.202C27.576 5.202 28.692 5.328 29.7 5.58C30.96 5.904 32.04 6.444 32.94 7.2C33.84 7.92 34.47 8.946 34.83 10.278C34.902 10.566 34.956 10.872 34.992 11.196C35.028 11.52 35.046 11.862 35.046 12.222ZM70.8438 39.438C70.4838 39.906 69.9978 40.5 69.3858 41.22C68.7738 41.904 68.1078 42.588 67.3878 43.272C66.6678 43.92 65.9298 44.478 65.1738 44.946C64.4178 45.414 63.7338 45.648 63.1218 45.648C62.7618 45.648 62.4918 45.63 62.3118 45.594C61.5558 45.378 60.9978 45 60.6378 44.46C60.2778 43.884 60.0438 43.254 59.9358 42.57C59.8278 41.85 59.7918 41.112 59.8278 40.356C59.8638 39.6 59.8818 38.916 59.8818 38.304V29.826C59.8818 29.034 59.8818 28.26 59.8818 27.504C59.8818 26.712 59.7918 25.92 59.6118 25.128C59.3598 24.192 59.0898 23.364 58.8018 22.644C58.5138 21.924 57.9378 21.456 57.0738 21.24C56.8938 21.204 56.6958 21.186 56.4798 21.186C56.2998 21.15 56.1198 21.132 55.9398 21.132C55.6518 21.132 55.3278 21.15 54.9678 21.186C54.6438 21.222 54.3378 21.276 54.0498 21.348C52.9698 21.6 51.9258 22.068 50.9178 22.752C49.9458 23.436 49.0458 24.246 48.2178 25.182C47.3898 26.082 46.6698 27.09 46.0578 28.206C45.4818 29.322 45.0498 30.456 44.7618 31.608C44.6178 32.148 44.4918 32.67 44.3838 33.174C44.2758 33.642 44.2218 34.128 44.2218 34.632C44.2218 35.064 44.2758 35.622 44.3838 36.306C44.4918 36.954 44.5818 37.458 44.6538 37.818C44.8338 38.646 45.1938 39.366 45.7338 39.978C46.2738 40.554 47.0118 40.842 47.9478 40.842C48.1278 40.842 48.3438 40.842 48.5958 40.842C48.8478 40.806 49.0998 40.788 49.3518 40.788C49.9638 40.788 50.6478 40.68 51.4038 40.464C52.3758 40.212 53.3658 39.852 54.3738 39.384C55.4178 38.916 56.3538 38.538 57.1818 38.25V38.52C56.6418 39.276 55.9758 40.032 55.1838 40.788C54.4278 41.508 53.5998 42.192 52.6998 42.84C51.7998 43.488 50.8458 44.064 49.8378 44.568C48.8658 45.072 47.8758 45.45 46.8678 45.702C46.0038 45.918 45.1218 46.026 44.2218 46.026C43.8978 46.026 43.5918 46.008 43.3038 45.972C43.0518 45.936 42.7818 45.882 42.4938 45.81C41.5218 45.558 40.7298 45.108 40.1178 44.46C39.5058 43.812 39.0738 43.02 38.8218 42.084C38.6778 41.508 38.6058 40.806 38.6058 39.978C38.6058 39.258 38.6958 38.538 38.8758 37.818C39.0558 37.062 39.2358 36.306 39.4158 35.55C39.8838 33.606 40.6038 31.68 41.5758 29.772C42.5838 27.864 43.7898 26.118 45.1938 24.534C46.5978 22.95 48.1458 21.582 49.8378 20.43C51.5658 19.242 53.4018 18.414 55.3458 17.946C55.9218 17.802 56.4978 17.694 57.0738 17.622C57.6498 17.55 58.2438 17.514 58.8558 17.514C59.1438 17.514 59.4858 17.532 59.8818 17.568C60.3138 17.568 60.6378 17.604 60.8538 17.676C62.0058 17.964 62.8878 18.558 63.4998 19.458C64.1478 20.322 64.6158 21.312 64.9038 22.428C65.0838 23.04 65.1738 23.688 65.1738 24.372C65.2098 25.02 65.2278 25.668 65.2278 26.316C65.2278 27.576 65.1738 28.854 65.0658 30.15C64.9938 31.41 64.9578 32.67 64.9578 33.93C64.9578 35.334 65.0838 36.558 65.3358 37.602C65.5158 38.214 65.7498 38.754 66.0378 39.222C66.3618 39.654 66.8118 39.96 67.3878 40.14C67.4598 40.14 67.5318 40.158 67.6038 40.194C67.7118 40.194 67.8198 40.194 67.9278 40.194C68.4318 40.194 68.9358 40.068 69.4398 39.816C69.9438 39.564 70.4118 39.348 70.8438 39.168V39.438ZM106.145 18.756V19.134C104.489 19.998 102.761 20.7 100.961 21.24C99.7006 23.256 98.8006 25.416 98.2606 27.72C97.9726 28.872 97.7566 30.042 97.6126 31.23C97.4686 32.382 97.3966 33.534 97.3966 34.686C97.3966 35.082 97.3786 35.55 97.3426 36.09C97.3426 36.594 97.4146 37.098 97.5586 37.602C97.7026 38.214 97.9186 38.754 98.2066 39.222C98.5306 39.654 98.9806 39.96 99.5566 40.14C99.6646 40.14 99.7906 40.158 99.9346 40.194C100.115 40.194 100.277 40.194 100.421 40.194C100.745 40.194 101.213 40.068 101.825 39.816C102.437 39.528 102.887 39.312 103.175 39.168L103.337 39.33L103.283 39.384C103.247 39.456 103.211 39.51 103.175 39.546C102.887 39.978 102.437 40.554 101.825 41.274C101.249 41.958 100.601 42.642 99.8806 43.326C99.1966 43.974 98.4946 44.55 97.7746 45.054C97.0546 45.558 96.4246 45.81 95.8846 45.81C95.5966 45.81 95.2726 45.774 94.9126 45.702C93.8326 45.45 93.0406 44.91 92.5366 44.082C92.0686 43.218 91.7806 42.264 91.6726 41.22C91.6006 40.176 91.6546 39.114 91.8346 38.034C92.0146 36.954 92.1946 36.018 92.3746 35.226C92.9506 32.886 93.7606 30.546 94.8046 28.206C95.8486 25.83 96.8926 23.778 97.9366 22.05V21.726L96.8566 22.05C96.3886 22.158 95.9026 22.212 95.3986 22.212C93.7426 22.212 92.0866 22.23 90.4306 22.266C88.7746 22.266 87.1186 22.266 85.4626 22.266C84.8506 23.238 84.3646 24.138 84.0046 24.966C83.6446 25.758 83.3566 26.622 83.1406 27.558C82.8526 28.602 82.6366 29.736 82.4926 30.96C82.3846 32.184 82.2406 33.426 82.0606 34.686C81.9886 35.262 81.8986 35.82 81.7906 36.36C81.7186 36.864 81.6286 37.368 81.5206 37.872C81.0526 39.708 80.3326 41.274 79.3606 42.57C78.3886 43.866 76.9306 45.036 74.9866 46.08H74.6086C74.6806 45.108 74.7346 44.136 74.7706 43.164C74.8426 42.192 74.9146 41.202 74.9866 40.194C75.0586 39.438 75.1306 38.682 75.2026 37.926C75.3106 37.17 75.4546 36.432 75.6346 35.712C75.7066 35.316 75.8146 34.938 75.9586 34.578C76.6786 32.382 77.7046 30.258 79.0366 28.206C80.3686 26.154 81.7186 24.21 83.0866 22.374V22.05C82.9066 22.05 82.7266 22.068 82.5466 22.104C82.4026 22.14 82.2406 22.176 82.0606 22.212C80.6206 22.572 79.2526 23.13 77.9566 23.886C76.6606 24.642 75.3286 25.29 73.9606 25.83L73.5286 24.966C74.4286 24.21 75.2206 23.472 75.9046 22.752C76.6246 21.996 77.3266 21.294 78.0106 20.646C78.7306 19.998 79.4686 19.44 80.2246 18.972C81.0166 18.468 81.9166 18.09 82.9246 17.838C83.3566 17.73 83.8246 17.64 84.3286 17.568C84.8326 17.496 85.3906 17.46 86.0026 17.46C86.9386 17.46 87.8746 17.532 88.8106 17.676C89.7826 17.784 90.7366 17.892 91.6726 18C93.6886 18.252 95.6866 18.468 97.6666 18.648C99.6466 18.828 101.645 18.918 103.661 18.918C104.525 18.918 105.353 18.864 106.145 18.756ZM130.459 32.904C130.459 33.552 130.405 34.254 130.297 35.01C130.225 35.73 130.117 36.36 129.973 36.9C129.433 39.06 128.443 40.86 127.003 42.3C126.175 43.128 125.221 43.812 124.141 44.352C123.097 44.856 121.945 45.27 120.685 45.594C119.965 45.774 119.209 45.864 118.417 45.864C117.625 45.9 116.815 45.918 115.987 45.918C115.375 45.918 114.799 45.882 114.259 45.81C113.719 45.738 113.197 45.648 112.693 45.54C111.073 45.108 109.705 44.37 108.589 43.326C107.545 42.282 106.843 41.004 106.483 39.492C106.267 38.628 106.159 37.674 106.159 36.63C106.159 35.658 106.303 34.56 106.591 33.336C107.095 31.32 107.941 29.232 109.129 27.072C110.317 24.876 111.721 22.968 113.341 21.348C115.249 19.44 117.265 18.216 119.389 17.676C119.677 17.604 119.983 17.568 120.307 17.568C120.631 17.532 120.937 17.514 121.225 17.514C121.477 17.514 121.747 17.532 122.035 17.568C122.323 17.568 122.575 17.604 122.791 17.676C123.331 17.82 123.835 18.054 124.303 18.378C124.807 18.666 125.275 19.008 125.707 19.404C126.679 20.376 127.489 21.582 128.137 23.022C128.785 24.426 129.307 25.884 129.703 27.396C129.991 28.404 130.189 29.394 130.297 30.366C130.405 31.302 130.459 32.148 130.459 32.904ZM127.111 30.042C127.111 29.718 127.093 29.412 127.057 29.124C127.021 28.8 126.967 28.494 126.895 28.206C126.715 27.522 126.427 26.856 126.031 26.208C125.671 25.524 125.221 24.912 124.681 24.372C124.321 24.012 123.925 23.706 123.493 23.454C123.061 23.166 122.611 22.968 122.143 22.86C121.675 22.716 121.117 22.644 120.469 22.644C119.749 22.644 118.993 22.734 118.201 22.914C117.373 23.13 116.581 23.454 115.825 23.886C115.105 24.318 114.439 24.84 113.827 25.452C112.423 26.784 111.505 28.422 111.073 30.366C110.857 31.122 110.749 31.932 110.749 32.796C110.749 33.552 110.839 34.344 111.019 35.172C111.343 36.468 111.919 37.53 112.747 38.358C113.503 39.114 114.385 39.618 115.393 39.87C115.933 39.978 116.509 40.032 117.121 40.032C117.517 40.032 117.895 40.05 118.255 40.086C118.615 40.122 118.957 40.104 119.281 40.032C121.333 39.528 123.043 38.592 124.411 37.224C124.987 36.648 125.473 36 125.869 35.28C126.301 34.56 126.607 33.786 126.787 32.958C126.895 32.526 126.967 32.058 127.003 31.554C127.075 31.014 127.111 30.51 127.111 30.042ZM161.814 27.18C161.814 28.224 161.652 29.34 161.328 30.528C160.932 32.112 160.302 33.732 159.438 35.388C158.61 37.044 157.602 38.592 156.414 40.032C155.226 41.436 153.912 42.678 152.472 43.758C151.068 44.802 149.61 45.504 148.098 45.864C147.306 46.044 146.586 46.134 145.938 46.134C145.686 46.134 145.38 46.098 145.02 46.026C144.084 45.81 143.508 45.216 143.292 44.244C143.256 44.064 143.22 43.884 143.184 43.704C143.184 43.524 143.184 43.344 143.184 43.164C143.184 42.912 143.22 42.696 143.292 42.516C143.472 41.868 143.778 41.148 144.21 40.356C144.642 39.528 145.002 38.88 145.29 38.412H145.56V39.816C145.56 40.32 145.74 40.734 146.1 41.058C146.496 41.346 146.91 41.544 147.342 41.652C147.702 41.724 148.026 41.778 148.314 41.814C148.638 41.814 148.944 41.814 149.232 41.814C149.736 41.814 150.204 41.76 150.636 41.652C152.112 41.292 153.264 40.482 154.092 39.222C154.956 37.962 155.586 36.576 155.982 35.064C156.162 34.452 156.27 33.858 156.306 33.282C156.378 32.67 156.414 32.076 156.414 31.5C156.414 30.96 156.378 30.402 156.306 29.826C156.27 29.214 156.18 28.638 156.036 28.098C155.82 27.27 155.514 26.478 155.118 25.722C154.758 24.966 154.272 24.3 153.66 23.724C152.796 22.932 151.788 22.374 150.636 22.05C150.348 21.978 150.042 21.924 149.718 21.888C149.394 21.852 149.052 21.834 148.692 21.834C148.368 21.834 148.062 21.87 147.774 21.942C147.486 21.978 147.198 22.032 146.91 22.104C145.434 22.464 144.3 23.22 143.508 24.372C142.752 25.488 142.194 26.802 141.834 28.314C141.582 29.358 141.384 30.456 141.24 31.608C141.132 32.724 141.06 33.84 141.024 34.956C140.988 36.072 140.97 37.152 140.97 38.196C140.97 39.204 140.952 40.104 140.916 40.896C140.88 42.372 140.664 43.848 140.268 45.324C139.656 47.664 138.72 49.86 137.46 51.912C136.236 53.964 134.688 55.764 132.816 57.312H132.6C132.708 57.024 132.798 56.718 132.87 56.394C132.978 56.07 133.068 55.764 133.14 55.476C133.608 53.568 133.932 51.642 134.112 49.698C134.328 47.754 134.508 45.81 134.652 43.866C134.832 41.886 135.012 39.924 135.192 37.98C135.408 36.036 135.75 34.128 136.218 32.256C136.506 31.104 136.83 30.042 137.19 29.07C138.162 26.37 139.692 24.084 141.78 22.212C143.904 20.34 146.316 19.062 149.016 18.378C150.312 18.054 151.626 17.892 152.958 17.892C153.678 17.892 154.434 17.982 155.226 18.162C156.846 18.558 158.196 19.332 159.276 20.484C160.356 21.636 161.094 23.022 161.49 24.642C161.706 25.434 161.814 26.28 161.814 27.18ZM178.137 15.678C177.993 16.182 177.831 16.686 177.651 17.19C177.507 17.658 177.345 18.144 177.165 18.648C176.913 19.368 176.625 20.214 176.301 21.186C175.977 22.158 175.635 23.202 175.275 24.318C174.915 25.434 174.555 26.568 174.195 27.72C173.871 28.872 173.565 29.988 173.277 31.068C172.989 32.148 172.773 33.156 172.629 34.092C172.485 35.028 172.413 35.838 172.413 36.522C172.413 37.134 172.467 37.71 172.575 38.25C172.683 38.718 172.863 39.132 173.115 39.492C173.367 39.816 173.709 40.032 174.141 40.14C174.285 40.176 174.483 40.194 174.735 40.194C175.059 40.194 175.527 40.068 176.139 39.816C176.751 39.528 177.219 39.312 177.543 39.168V39.438C177.219 39.834 176.787 40.356 176.247 41.004C175.707 41.652 175.113 42.3 174.465 42.948C173.817 43.596 173.151 44.19 172.467 44.73C171.819 45.27 171.225 45.612 170.685 45.756C170.613 45.756 170.523 45.756 170.415 45.756C170.343 45.792 170.271 45.81 170.199 45.81C169.947 45.81 169.641 45.774 169.281 45.702C168.633 45.522 168.129 45.198 167.769 44.73C167.409 44.226 167.139 43.65 166.959 43.002C166.887 42.606 166.833 42.21 166.797 41.814C166.761 41.382 166.743 40.968 166.743 40.572C166.743 39.744 166.797 38.952 166.905 38.196C167.013 37.44 167.157 36.684 167.337 35.928C167.733 34.308 168.219 32.724 168.795 31.176C169.407 29.628 169.911 28.044 170.307 26.424C170.379 26.244 170.415 26.064 170.415 25.884C170.451 25.704 170.505 25.524 170.577 25.344C170.613 25.128 170.631 24.912 170.631 24.696C170.667 24.48 170.685 24.282 170.685 24.102C170.685 23.922 170.685 23.76 170.685 23.616C170.685 23.436 170.649 23.256 170.577 23.076C170.397 22.392 170.073 21.834 169.605 21.402C169.137 20.97 168.579 20.664 167.931 20.484C167.751 20.448 167.553 20.43 167.337 20.43C167.121 20.394 166.905 20.376 166.689 20.376V18.918L169.659 18.972C171.027 18.972 172.197 18.846 173.169 18.594C173.997 18.414 174.771 18.09 175.491 17.622C176.211 17.154 176.967 16.506 177.759 15.678H178.137ZM179.217 6.93C179.217 7.65 179.145 8.244 179.001 8.712C178.569 10.404 177.543 11.466 175.923 11.898C175.455 12.006 174.915 12.06 174.303 12.06C173.907 12.06 173.529 12.06 173.169 12.06C172.809 12.024 172.449 11.952 172.089 11.844C171.981 11.448 171.909 11.07 171.873 10.71C171.837 10.314 171.819 9.918 171.819 9.522C171.819 8.946 171.873 8.442 171.981 8.01C172.197 7.182 172.575 6.48 173.115 5.904C173.691 5.328 174.393 4.95 175.221 4.77C175.653 4.626 176.175 4.554 176.787 4.554C177.183 4.554 177.561 4.572 177.921 4.608C178.281 4.644 178.641 4.716 179.001 4.824C179.109 5.184 179.163 5.544 179.163 5.904C179.199 6.228 179.217 6.57 179.217 6.93ZM204.247 18.972C204.247 19.008 204.229 19.134 204.193 19.35C204.193 19.566 204.175 19.8 204.139 20.052C204.139 20.268 204.121 20.484 204.085 20.7C204.085 20.916 204.085 21.042 204.085 21.078C203.725 22.59 203.059 23.958 202.087 25.182C201.115 26.37 200.017 27.45 198.793 28.422C197.569 29.394 196.273 30.276 194.905 31.068C193.573 31.824 192.331 32.526 191.179 33.174C190.063 33.786 189.091 34.362 188.263 34.902C187.471 35.406 187.021 35.91 186.913 36.414C186.877 36.486 186.859 36.54 186.859 36.576C186.895 36.612 186.913 36.666 186.913 36.738C187.885 36.738 188.857 36.702 189.829 36.63C190.801 36.522 191.773 36.468 192.745 36.468C193.285 36.468 193.789 36.558 194.257 36.738C194.761 36.918 195.229 37.062 195.661 37.17C197.569 37.602 198.757 38.754 199.225 40.626C199.369 41.202 199.441 41.958 199.441 42.894C199.441 43.182 199.423 43.488 199.387 43.812C199.351 44.136 199.297 44.442 199.225 44.73C198.901 46.062 198.289 47.304 197.389 48.456C196.525 49.608 195.517 50.652 194.365 51.588C193.213 52.56 191.989 53.406 190.693 54.126C189.397 54.846 188.173 55.422 187.021 55.854C186.625 56.034 186.157 56.178 185.617 56.286C185.113 56.394 184.663 56.502 184.267 56.61C183.439 56.826 182.665 57.006 181.945 57.15C181.225 57.294 180.451 57.366 179.623 57.366C179.443 57.366 179.191 57.33 178.867 57.258C178.507 57.222 178.255 57.186 178.111 57.15C177.535 56.97 177.049 56.7 176.653 56.34C176.221 56.016 175.933 55.566 175.789 54.99C175.717 54.702 175.681 54.45 175.681 54.234C175.681 54.126 175.717 53.928 175.789 53.64C175.897 53.244 176.095 52.794 176.383 52.29C176.671 51.822 177.013 51.354 177.409 50.886C177.769 50.418 178.147 49.986 178.543 49.59C178.903 49.23 179.191 48.942 179.407 48.726H179.677V51.318C179.677 52.182 180.055 52.758 180.811 53.046C181.603 53.334 182.431 53.478 183.295 53.478C183.799 53.478 184.267 53.442 184.699 53.37C185.167 53.298 185.545 53.226 185.833 53.154C186.697 52.938 187.561 52.632 188.425 52.236C189.325 51.84 190.135 51.354 190.855 50.778C191.575 50.238 192.205 49.59 192.745 48.834C193.285 48.114 193.663 47.322 193.879 46.458C194.023 45.99 194.095 45.432 194.095 44.784C194.095 44.676 194.059 44.478 193.987 44.19C193.915 43.866 193.879 43.65 193.879 43.542C193.663 42.678 193.087 42.066 192.151 41.706C191.215 41.346 190.189 41.166 189.073 41.166C188.173 41.166 187.309 41.256 186.481 41.436C185.689 41.616 185.059 41.832 184.591 42.084C184.303 42.264 184.087 42.39 183.943 42.462C183.799 42.498 183.547 42.516 183.187 42.516C183.079 42.516 182.881 42.516 182.593 42.516C182.341 42.48 182.161 42.462 182.053 42.462C182.053 42.246 182.071 42.03 182.107 41.814C182.143 41.562 182.197 41.31 182.269 41.058C182.485 40.158 182.845 39.204 183.349 38.196C183.889 37.188 184.483 36.216 185.131 35.28C185.815 34.344 186.517 33.48 187.237 32.688C187.993 31.896 188.695 31.266 189.343 30.798C189.955 30.366 190.783 29.862 191.827 29.286C192.871 28.71 193.915 28.098 194.959 27.45C196.039 26.802 196.993 26.118 197.821 25.398C198.685 24.642 199.189 23.886 199.333 23.13C199.369 23.022 199.387 22.896 199.387 22.752L198.091 22.698C197.371 22.698 196.633 22.662 195.877 22.59C195.121 22.518 194.383 22.482 193.663 22.482C192.187 22.482 190.981 22.572 190.045 22.752C189.145 22.932 188.317 23.112 187.561 23.292C186.625 23.508 185.689 23.832 184.753 24.264C183.817 24.696 182.539 25.272 180.919 25.992V24.966C181.783 24.246 182.557 23.544 183.241 22.86C183.961 22.14 184.663 21.492 185.347 20.916C186.067 20.304 186.805 19.782 187.561 19.35C188.317 18.918 189.199 18.594 190.207 18.378C190.387 18.342 190.657 18.324 191.017 18.324C191.413 18.288 191.701 18.27 191.881 18.27C192.529 18.27 193.141 18.324 193.717 18.432C194.293 18.504 194.887 18.612 195.499 18.756C196.111 18.864 196.777 18.972 197.497 19.08C198.253 19.152 199.099 19.188 200.035 19.188C200.251 19.188 200.557 19.188 200.953 19.188C201.349 19.152 201.763 19.134 202.195 19.134C202.627 19.098 203.023 19.08 203.383 19.08C203.779 19.044 204.067 19.008 204.247 18.972ZM231.752 33.066C231.752 34.038 231.644 34.992 231.428 35.928C231.14 37.116 230.672 38.232 230.024 39.276C229.376 40.32 228.602 41.256 227.702 42.084C226.838 42.912 225.866 43.632 224.786 44.244C223.706 44.82 222.572 45.252 221.384 45.54C220.772 45.684 220.124 45.792 219.44 45.864C218.756 45.972 218.072 46.026 217.388 46.026C216.38 46.026 215.372 45.918 214.364 45.702C213.392 45.486 212.474 45.144 211.61 44.676C210.782 44.172 210.062 43.542 209.45 42.786C208.838 42.03 208.388 41.112 208.1 40.032C208.028 39.636 207.956 39.24 207.884 38.844C207.848 38.448 207.83 37.998 207.83 37.494C207.83 36.666 207.884 35.838 207.992 35.01C208.136 34.182 208.298 33.354 208.478 32.526C208.658 31.914 208.838 31.32 209.018 30.744C209.198 30.168 209.378 29.574 209.558 28.962C209.738 28.53 209.936 27.972 210.152 27.288C210.368 26.568 210.566 25.902 210.746 25.29C210.818 25.074 210.872 24.876 210.908 24.696C210.944 24.48 210.962 24.282 210.962 24.102C210.962 23.742 210.908 23.4 210.8 23.076C210.44 21.6 209.522 20.682 208.046 20.322C207.866 20.25 207.686 20.214 207.506 20.214C207.362 20.214 207.2 20.214 207.02 20.214H206.966V18.864H217.874C217.622 19.872 217.28 20.88 216.848 21.888C216.416 22.86 215.948 23.85 215.444 24.858C214.976 25.83 214.526 26.82 214.094 27.828C213.662 28.8 213.32 29.79 213.068 30.798C212.96 31.302 212.87 31.806 212.798 32.31C212.726 32.778 212.69 33.264 212.69 33.768C212.69 34.164 212.708 34.542 212.744 34.902C212.816 35.262 212.888 35.622 212.96 35.982C213.32 37.35 213.968 38.484 214.904 39.384C215.876 40.248 217.046 40.842 218.414 41.166C219.278 41.382 220.214 41.49 221.222 41.49C221.906 41.49 222.662 41.4 223.49 41.22C224.642 40.932 225.704 40.446 226.676 39.762C227.648 39.042 228.278 38.124 228.566 37.008C228.602 36.828 228.62 36.648 228.62 36.468C228.656 36.288 228.674 36.108 228.674 35.928C228.674 35.388 228.62 34.938 228.512 34.578C228.26 33.57 227.756 32.778 227 32.202C226.28 31.59 225.434 31.158 224.462 30.906C223.67 30.726 222.95 30.636 222.302 30.636C221.654 30.636 220.916 30.726 220.088 30.906C219.368 31.086 218.684 31.356 218.036 31.716C217.388 32.076 216.812 32.544 216.308 33.12L216.362 31.554C217.19 30.294 218.27 29.124 219.602 28.044C220.934 26.928 222.392 26.172 223.976 25.776C224.624 25.596 225.254 25.506 225.866 25.506C226.082 25.506 226.334 25.524 226.622 25.56C226.91 25.56 227.162 25.596 227.378 25.668C228.458 25.956 229.322 26.532 229.97 27.396C230.654 28.26 231.14 29.232 231.428 30.312C231.644 31.212 231.752 32.13 231.752 33.066ZM275.316 57.204C275.136 57.24 274.812 57.258 274.344 57.258C273.876 57.258 273.354 57.222 272.778 57.15C272.202 57.114 271.626 57.06 271.05 56.988C270.51 56.916 269.988 56.844 269.484 56.772C269.016 56.7 268.638 56.628 268.35 56.556C266.442 56.052 264.624 55.35 262.896 54.45C262.32 54.162 261.762 53.856 261.222 53.532C260.682 53.244 260.16 52.92 259.656 52.56C257.064 50.76 254.742 48.618 252.69 46.134C250.674 43.65 249.126 41.004 248.046 38.196C247.866 37.728 247.704 37.278 247.56 36.846C247.416 36.378 247.29 35.892 247.182 35.388C247.074 34.884 246.984 34.38 246.912 33.876C247.128 33.156 247.398 32.436 247.722 31.716C248.082 30.996 248.46 30.312 248.856 29.664C249.72 28.296 250.692 27 251.772 25.776C253.68 23.616 255.696 21.762 257.82 20.214C259.944 18.63 262.248 17.226 264.732 16.002C265.056 15.822 265.362 15.678 265.65 15.57C265.974 15.462 266.298 15.336 266.622 15.192H266.892L263.76 27.234H262.95V26.208V24.426C262.95 23.922 262.77 23.436 262.41 22.968C262.05 22.464 261.564 22.212 260.952 22.212C260.736 22.212 260.574 22.23 260.466 22.266C260.358 22.302 260.214 22.356 260.034 22.428C259.422 22.608 258.864 22.842 258.36 23.13C257.784 23.418 257.226 23.796 256.686 24.264C256.182 24.732 255.696 25.236 255.228 25.776C254.868 26.244 254.526 26.73 254.202 27.234C253.914 27.702 253.662 28.188 253.446 28.692C253.194 29.232 252.978 29.844 252.798 30.528C252.654 31.068 252.582 31.626 252.582 32.202V32.904C252.582 33.228 252.582 33.552 252.582 33.876C252.618 34.2 252.672 34.542 252.744 34.902C253.176 36.63 253.932 38.358 255.012 40.086C256.092 41.814 257.37 43.47 258.846 45.054C260.358 46.674 261.978 48.186 263.706 49.59C265.47 51.03 267.216 52.29 268.944 53.37C270.06 54.054 271.158 54.684 272.238 55.26C273.354 55.872 274.38 56.34 275.316 56.664V57.204ZM247.83 18.918L241.404 45H236.22L240.972 25.722C241.116 25.254 241.188 24.732 241.188 24.156C241.188 23.976 241.17 23.796 241.134 23.616C241.134 23.436 241.116 23.256 241.08 23.076C240.684 21.636 239.766 20.736 238.326 20.376C238.146 20.304 237.966 20.268 237.786 20.268C237.606 20.268 237.408 20.268 237.192 20.268L237.57 18.918H247.83ZM297.549 39.438C297.189 39.906 296.703 40.5 296.091 41.22C295.479 41.904 294.813 42.588 294.093 43.272C293.373 43.92 292.635 44.478 291.879 44.946C291.123 45.414 290.439 45.648 289.827 45.648C289.467 45.648 289.197 45.63 289.017 45.594C288.261 45.378 287.703 45 287.343 44.46C286.983 43.884 286.749 43.254 286.641 42.57C286.533 41.85 286.497 41.112 286.533 40.356C286.569 39.6 286.587 38.916 286.587 38.304V29.826C286.587 29.034 286.587 28.26 286.587 27.504C286.587 26.712 286.497 25.92 286.317 25.128C286.065 24.192 285.795 23.364 285.507 22.644C285.219 21.924 284.643 21.456 283.779 21.24C283.599 21.204 283.401 21.186 283.185 21.186C283.005 21.15 282.825 21.132 282.645 21.132C282.357 21.132 282.033 21.15 281.673 21.186C281.349 21.222 281.043 21.276 280.755 21.348C279.675 21.6 278.631 22.068 277.623 22.752C276.651 23.436 275.751 24.246 274.923 25.182C274.095 26.082 273.375 27.09 272.763 28.206C272.187 29.322 271.755 30.456 271.467 31.608C271.323 32.148 271.197 32.67 271.089 33.174C270.981 33.642 270.927 34.128 270.927 34.632C270.927 35.064 270.981 35.622 271.089 36.306C271.197 36.954 271.287 37.458 271.359 37.818C271.539 38.646 271.899 39.366 272.439 39.978C272.979 40.554 273.717 40.842 274.653 40.842C274.833 40.842 275.049 40.842 275.301 40.842C275.553 40.806 275.805 40.788 276.057 40.788C276.669 40.788 277.353 40.68 278.109 40.464C279.081 40.212 280.071 39.852 281.079 39.384C282.123 38.916 283.059 38.538 283.887 38.25V38.52C283.347 39.276 282.681 40.032 281.889 40.788C281.133 41.508 280.305 42.192 279.405 42.84C278.505 43.488 277.551 44.064 276.543 44.568C275.571 45.072 274.581 45.45 273.573 45.702C272.709 45.918 271.827 46.026 270.927 46.026C270.603 46.026 270.297 46.008 270.009 45.972C269.757 45.936 269.487 45.882 269.199 45.81C268.227 45.558 267.435 45.108 266.823 44.46C266.211 43.812 265.779 43.02 265.527 42.084C265.383 41.508 265.311 40.806 265.311 39.978C265.311 39.258 265.401 38.538 265.581 37.818C265.761 37.062 265.941 36.306 266.121 35.55C266.589 33.606 267.309 31.68 268.281 29.772C269.289 27.864 270.495 26.118 271.899 24.534C273.303 22.95 274.851 21.582 276.543 20.43C278.271 19.242 280.107 18.414 282.051 17.946C282.627 17.802 283.203 17.694 283.779 17.622C284.355 17.55 284.949 17.514 285.561 17.514C285.849 17.514 286.191 17.532 286.587 17.568C287.019 17.568 287.343 17.604 287.559 17.676C288.711 17.964 289.593 18.558 290.205 19.458C290.853 20.322 291.321 21.312 291.609 22.428C291.789 23.04 291.879 23.688 291.879 24.372C291.915 25.02 291.933 25.668 291.933 26.316C291.933 27.576 291.879 28.854 291.771 30.15C291.699 31.41 291.663 32.67 291.663 33.93C291.663 35.334 291.789 36.558 292.041 37.602C292.221 38.214 292.455 38.754 292.743 39.222C293.067 39.654 293.517 39.96 294.093 40.14C294.165 40.14 294.237 40.158 294.309 40.194C294.417 40.194 294.525 40.194 294.633 40.194C295.137 40.194 295.641 40.068 296.145 39.816C296.649 39.564 297.117 39.348 297.549 39.168V39.438Z" fill="#00924F"/>
<path d="M350.952 2.718C350.916 2.826 350.898 2.934 350.898 3.042C350.826 3.258 350.79 3.402 350.79 3.474C350.502 4.59 350.106 5.94 349.602 7.524C349.098 9.108 348.522 10.71 347.874 12.33C347.226 13.95 346.506 15.462 345.714 16.866C344.958 18.234 344.184 19.296 343.392 20.052H342.042C342.438 19.548 342.744 19.008 342.96 18.432C343.212 17.856 343.41 17.262 343.554 16.65C343.734 16.038 343.86 15.372 343.932 14.652C344.04 13.896 344.13 13.212 344.202 12.6C343.338 11.88 342.546 11.286 341.826 10.818C341.106 10.35 340.242 9.972 339.234 9.684C338.766 9.576 338.244 9.486 337.668 9.414C337.092 9.306 336.552 9.252 336.048 9.252C335.04 9.252 334.068 9.36 333.132 9.576C332.556 9.756 332.016 9.954 331.512 10.17C331.044 10.35 330.558 10.584 330.054 10.872C328.578 11.736 327.318 12.888 326.274 14.328C325.23 15.732 324.366 17.298 323.682 19.026C323.502 19.494 323.34 19.962 323.196 20.43C323.052 20.862 322.926 21.33 322.818 21.834C322.314 23.922 322.062 25.902 322.062 27.774C322.062 28.674 322.116 29.628 322.224 30.636C322.332 31.608 322.512 32.58 322.764 33.552C323.016 34.56 323.34 35.55 323.736 36.522C324.168 37.494 324.69 38.394 325.302 39.222C325.914 40.014 326.616 40.716 327.408 41.328C328.2 41.904 329.1 42.318 330.108 42.57C330.432 42.642 330.774 42.714 331.134 42.786C331.494 42.858 331.872 42.894 332.268 42.894C332.772 42.894 333.222 42.876 333.618 42.84C334.05 42.804 334.482 42.732 334.914 42.624C336.75 42.156 338.316 41.274 339.612 39.978C340.908 38.682 341.952 37.152 342.744 35.388C342.852 35.1 342.924 34.83 342.96 34.578C342.996 34.29 343.05 33.984 343.122 33.66C343.338 33.48 343.698 33.21 344.202 32.85C344.742 32.49 345.192 32.274 345.552 32.202C345.588 32.202 345.66 32.202 345.768 32.202C345.912 32.166 346.002 32.148 346.038 32.148H346.524C346.848 32.22 347.064 32.472 347.172 32.904V33.336C347.172 33.66 347.136 34.038 347.064 34.47C346.992 34.902 346.938 35.208 346.902 35.388C346.578 36.72 345.93 37.962 344.958 39.114C343.986 40.23 342.852 41.238 341.556 42.138C340.26 43.038 338.856 43.83 337.344 44.514C335.832 45.162 334.356 45.666 332.916 46.026C331.656 46.314 330.36 46.458 329.028 46.458C328.416 46.458 327.822 46.422 327.246 46.35C326.67 46.314 326.13 46.224 325.626 46.08C323.142 45.468 321.126 44.334 319.578 42.678C318.03 41.022 316.95 38.952 316.338 36.468C316.158 35.712 315.996 34.848 315.852 33.876C315.708 32.904 315.636 31.986 315.636 31.122C315.636 30.078 315.69 28.98 315.798 27.828C315.942 26.676 316.14 25.596 316.392 24.588C316.932 22.428 317.742 20.376 318.822 18.432C319.902 16.488 321.198 14.742 322.71 13.194C324.222 11.61 325.914 10.26 327.786 9.144C329.694 7.992 331.728 7.146 333.888 6.606C335.58 6.21 337.29 6.012 339.018 6.012C339.954 6.012 340.872 6.048 341.772 6.12C342.708 6.156 343.644 6.282 344.58 6.498C344.868 6.57 345.138 6.66 345.39 6.768C345.642 6.84 345.894 6.93 346.146 7.038C346.866 6.21 347.622 5.472 348.414 4.824C349.206 4.176 349.962 3.456 350.682 2.664L350.952 2.718ZM383.369 18.756V19.134C381.713 19.998 379.985 20.7 378.185 21.24C376.925 23.256 376.025 25.416 375.485 27.72C375.197 28.872 374.981 30.042 374.837 31.23C374.693 32.382 374.621 33.534 374.621 34.686C374.621 35.082 374.603 35.55 374.567 36.09C374.567 36.594 374.639 37.098 374.783 37.602C374.927 38.214 375.143 38.754 375.431 39.222C375.755 39.654 376.205 39.96 376.781 40.14C376.889 40.14 377.015 40.158 377.159 40.194C377.339 40.194 377.501 40.194 377.645 40.194C377.969 40.194 378.437 40.068 379.049 39.816C379.661 39.528 380.111 39.312 380.399 39.168L380.561 39.33L380.507 39.384C380.471 39.456 380.435 39.51 380.399 39.546C380.111 39.978 379.661 40.554 379.049 41.274C378.473 41.958 377.825 42.642 377.105 43.326C376.421 43.974 375.719 44.55 374.999 45.054C374.279 45.558 373.649 45.81 373.109 45.81C372.821 45.81 372.497 45.774 372.137 45.702C371.057 45.45 370.265 44.91 369.761 44.082C369.293 43.218 369.005 42.264 368.897 41.22C368.825 40.176 368.879 39.114 369.059 38.034C369.239 36.954 369.419 36.018 369.599 35.226C370.175 32.886 370.985 30.546 372.029 28.206C373.073 25.83 374.117 23.778 375.161 22.05V21.726L374.081 22.05C373.613 22.158 373.127 22.212 372.623 22.212C370.967 22.212 369.311 22.23 367.655 22.266C365.999 22.266 364.343 22.266 362.687 22.266C362.075 23.238 361.589 24.138 361.229 24.966C360.869 25.758 360.581 26.622 360.365 27.558C360.077 28.602 359.861 29.736 359.717 30.96C359.609 32.184 359.465 33.426 359.285 34.686C359.213 35.262 359.123 35.82 359.015 36.36C358.943 36.864 358.853 37.368 358.745 37.872C358.277 39.708 357.557 41.274 356.585 42.57C355.613 43.866 354.155 45.036 352.211 46.08H351.833C351.905 45.108 351.959 44.136 351.995 43.164C352.067 42.192 352.139 41.202 352.211 40.194C352.283 39.438 352.355 38.682 352.427 37.926C352.535 37.17 352.679 36.432 352.859 35.712C352.931 35.316 353.039 34.938 353.183 34.578C353.903 32.382 354.929 30.258 356.261 28.206C357.593 26.154 358.943 24.21 360.311 22.374V22.05C360.131 22.05 359.951 22.068 359.771 22.104C359.627 22.14 359.465 22.176 359.285 22.212C357.845 22.572 356.477 23.13 355.181 23.886C353.885 24.642 352.553 25.29 351.185 25.83L350.753 24.966C351.653 24.21 352.445 23.472 353.129 22.752C353.849 21.996 354.551 21.294 355.235 20.646C355.955 19.998 356.693 19.44 357.449 18.972C358.241 18.468 359.141 18.09 360.149 17.838C360.581 17.73 361.049 17.64 361.553 17.568C362.057 17.496 362.615 17.46 363.227 17.46C364.163 17.46 365.099 17.532 366.035 17.676C367.007 17.784 367.961 17.892 368.897 18C370.913 18.252 372.911 18.468 374.891 18.648C376.871 18.828 378.869 18.918 380.885 18.918C381.749 18.918 382.577 18.864 383.369 18.756ZM415.621 39.438C415.261 39.906 414.775 40.5 414.163 41.22C413.551 41.904 412.885 42.588 412.165 43.272C411.445 43.92 410.707 44.478 409.951 44.946C409.195 45.414 408.511 45.648 407.899 45.648C407.539 45.648 407.269 45.63 407.089 45.594C406.333 45.378 405.775 45 405.415 44.46C405.055 43.884 404.821 43.254 404.713 42.57C404.605 41.85 404.569 41.112 404.605 40.356C404.641 39.6 404.659 38.916 404.659 38.304V29.826C404.659 29.034 404.659 28.26 404.659 27.504C404.659 26.712 404.569 25.92 404.389 25.128C404.137 24.192 403.867 23.364 403.579 22.644C403.291 21.924 402.715 21.456 401.851 21.24C401.671 21.204 401.473 21.186 401.257 21.186C401.077 21.15 400.897 21.132 400.717 21.132C400.429 21.132 400.105 21.15 399.745 21.186C399.421 21.222 399.115 21.276 398.827 21.348C397.747 21.6 396.703 22.068 395.695 22.752C394.723 23.436 393.823 24.246 392.995 25.182C392.167 26.082 391.447 27.09 390.835 28.206C390.259 29.322 389.827 30.456 389.539 31.608C389.395 32.148 389.269 32.67 389.161 33.174C389.053 33.642 388.999 34.128 388.999 34.632C388.999 35.064 389.053 35.622 389.161 36.306C389.269 36.954 389.359 37.458 389.431 37.818C389.611 38.646 389.971 39.366 390.511 39.978C391.051 40.554 391.789 40.842 392.725 40.842C392.905 40.842 393.121 40.842 393.373 40.842C393.625 40.806 393.877 40.788 394.129 40.788C394.741 40.788 395.425 40.68 396.181 40.464C397.153 40.212 398.143 39.852 399.151 39.384C400.195 38.916 401.131 38.538 401.959 38.25V38.52C401.419 39.276 400.753 40.032 399.961 40.788C399.205 41.508 398.377 42.192 397.477 42.84C396.577 43.488 395.623 44.064 394.615 44.568C393.643 45.072 392.653 45.45 391.645 45.702C390.781 45.918 389.899 46.026 388.999 46.026C388.675 46.026 388.369 46.008 388.081 45.972C387.829 45.936 387.559 45.882 387.271 45.81C386.299 45.558 385.507 45.108 384.895 44.46C384.283 43.812 383.851 43.02 383.599 42.084C383.455 41.508 383.383 40.806 383.383 39.978C383.383 39.258 383.473 38.538 383.653 37.818C383.833 37.062 384.013 36.306 384.193 35.55C384.661 33.606 385.381 31.68 386.353 29.772C387.361 27.864 388.567 26.118 389.971 24.534C391.375 22.95 392.923 21.582 394.615 20.43C396.343 19.242 398.179 18.414 400.123 17.946C400.699 17.802 401.275 17.694 401.851 17.622C402.427 17.55 403.021 17.514 403.633 17.514C403.921 17.514 404.263 17.532 404.659 17.568C405.091 17.568 405.415 17.604 405.631 17.676C406.783 17.964 407.665 18.558 408.277 19.458C408.925 20.322 409.393 21.312 409.681 22.428C409.861 23.04 409.951 23.688 409.951 24.372C409.987 25.02 410.005 25.668 410.005 26.316C410.005 27.576 409.951 28.854 409.843 30.15C409.771 31.41 409.735 32.67 409.735 33.93C409.735 35.334 409.861 36.558 410.113 37.602C410.293 38.214 410.527 38.754 410.815 39.222C411.139 39.654 411.589 39.96 412.165 40.14C412.237 40.14 412.309 40.158 412.381 40.194C412.489 40.194 412.597 40.194 412.705 40.194C413.209 40.194 413.713 40.068 414.217 39.816C414.721 39.564 415.189 39.348 415.621 39.168V39.438ZM446.602 39.384C446.566 39.996 446.494 40.68 446.386 41.436C446.278 42.156 446.134 42.804 445.954 43.38C445.522 45.072 444.856 46.656 443.956 48.132C443.092 49.608 442.048 50.94 440.824 52.128C439.6 53.316 438.232 54.324 436.72 55.152C435.244 56.016 433.66 56.664 431.968 57.096C431.248 57.276 430.546 57.402 429.862 57.474C429.214 57.582 428.53 57.636 427.81 57.636C427.45 57.636 427.108 57.582 426.784 57.474C426.244 57.33 425.776 57.078 425.38 56.718C424.984 56.394 424.696 55.944 424.516 55.368C424.48 55.224 424.462 54.954 424.462 54.558V54.288C424.534 53.964 424.732 53.658 425.056 53.37C425.38 53.082 425.74 52.812 426.136 52.56C426.568 52.308 427 52.092 427.432 51.912C427.864 51.768 428.206 51.642 428.458 51.534C428.422 51.714 428.386 51.912 428.35 52.128C428.35 52.344 428.35 52.542 428.35 52.722C428.35 52.902 428.386 53.136 428.458 53.424C428.638 54.18 429.106 54.648 429.862 54.828C430.15 54.9 430.366 54.936 430.51 54.936C430.978 54.936 431.392 54.864 431.752 54.72C432.112 54.612 432.49 54.504 432.886 54.396C433.93 54.144 434.902 53.73 435.802 53.154C436.738 52.614 437.566 51.948 438.286 51.156C439.042 50.364 439.654 49.482 440.122 48.51C440.626 47.574 440.95 46.566 441.094 45.486L441.472 42.786C440.608 43.182 439.798 43.542 439.042 43.866C438.286 44.154 437.386 44.442 436.342 44.73C434.722 45.126 433.084 45.432 431.428 45.648C429.772 45.9 428.188 46.026 426.676 46.026C425.416 46.026 424.066 45.846 422.626 45.486C421.186 45.162 419.872 45 418.684 45C417.352 45 416.038 45.342 414.742 46.026C413.41 46.746 412.06 48.06 410.692 49.968H408.316C408.784 48.744 409.306 47.772 409.882 47.052C410.458 46.368 411.088 45.792 411.772 45.324C412.42 44.892 413.104 44.496 413.824 44.136C414.508 43.74 415.21 43.254 415.93 42.678C416.65 42.03 417.46 41.148 418.36 40.032C419.26 38.88 420.178 37.602 421.114 36.198C422.086 34.794 423.058 33.3 424.03 31.716C425.002 30.132 425.92 28.584 426.784 27.072C427.684 25.56 428.494 24.138 429.214 22.806C429.97 21.474 430.6 20.34 431.104 19.404L430.78 18C430.384 16.416 429.88 14.778 429.268 13.086C428.692 11.394 427.972 9.81 427.108 8.334C426.244 6.858 425.2 5.562 423.976 4.446C422.752 3.33 421.33 2.556 419.71 2.124C418.81 1.944 417.946 1.854 417.118 1.854V1.53L417.982 1.26C418.666 1.08 419.404 0.935998 420.196 0.827999C421.024 0.719998 421.708 0.665998 422.248 0.665998C423.112 0.665998 423.922 0.773998 424.678 0.989997C425.938 1.314 427.09 1.836 428.134 2.556C429.214 3.24 430.186 4.068 431.05 5.04C431.914 6.012 432.67 7.074 433.318 8.226C434.002 9.378 434.542 10.53 434.938 11.682C435.01 11.97 435.082 12.24 435.154 12.492C435.226 12.708 435.298 12.96 435.37 13.248C435.55 13.968 435.694 14.688 435.802 15.408C435.91 16.092 436.018 16.794 436.126 17.514C436.414 19.674 436.684 21.834 436.936 23.994C437.188 26.118 437.458 28.26 437.746 30.42C437.854 31.356 437.98 32.274 438.124 33.174C438.304 34.038 438.484 34.938 438.664 35.874C438.736 36.27 438.808 36.684 438.88 37.116C438.952 37.548 439.042 37.962 439.15 38.358C439.294 38.898 439.456 39.42 439.636 39.924C439.852 40.428 440.158 40.878 440.554 41.274C441.598 40.986 442.606 40.698 443.578 40.41C444.586 40.086 445.594 39.744 446.602 39.384ZM435.37 42.246C434.83 40.77 434.416 39.222 434.128 37.602C433.84 35.946 433.588 34.29 433.372 32.634C433.156 30.942 432.958 29.268 432.778 27.612C432.598 25.92 432.364 24.3 432.076 22.752H431.806C430.042 25.992 428.296 29.124 426.568 32.148C424.84 35.136 422.968 38.178 420.952 41.274C421.204 41.238 421.456 41.22 421.708 41.22C421.96 41.184 422.212 41.166 422.464 41.166C422.716 41.166 422.95 41.184 423.166 41.22C423.382 41.22 423.616 41.238 423.868 41.274C425.236 41.346 426.46 41.526 427.54 41.814C428.656 42.066 429.88 42.282 431.212 42.462C431.5 42.498 431.806 42.534 432.13 42.57C432.454 42.57 432.796 42.57 433.156 42.57C433.444 42.57 433.804 42.534 434.236 42.462C434.668 42.354 435.046 42.282 435.37 42.246ZM486.688 39.384C486.616 40.608 486.454 41.778 486.202 42.894C485.77 44.586 485.122 46.206 484.258 47.754C483.394 49.338 482.35 50.778 481.126 52.074C479.938 53.37 478.606 54.486 477.13 55.422C475.654 56.358 474.07 57.042 472.378 57.474C471.874 57.582 471.37 57.672 470.866 57.744C470.398 57.852 469.912 57.906 469.408 57.906C468.94 57.906 468.472 57.852 468.004 57.744C467.572 57.636 467.104 57.51 466.6 57.366C466.06 57.222 465.592 56.97 465.196 56.61C464.8 56.25 464.53 55.782 464.386 55.206C464.314 54.918 464.278 54.612 464.278 54.288C464.278 54.144 464.314 53.928 464.386 53.64C464.53 53.028 464.908 52.38 465.52 51.696C466.132 51.012 466.69 50.472 467.194 50.076C467.23 50.112 467.266 50.13 467.302 50.13C467.338 50.13 467.374 50.13 467.41 50.13L467.464 50.076V51.75C467.428 52.794 467.824 53.496 468.652 53.856C469.48 54.252 470.38 54.45 471.352 54.45C471.856 54.45 472.324 54.414 472.756 54.342C473.188 54.27 473.566 54.18 473.89 54.072C475.942 53.46 477.544 52.434 478.696 50.994C479.884 49.554 480.712 47.862 481.18 45.918C481.324 45.414 481.414 44.892 481.45 44.352C481.522 43.812 481.576 43.29 481.612 42.786C479.596 43.686 477.418 44.442 475.078 45.054C473.458 45.45 471.712 45.702 469.84 45.81C467.968 45.954 466.186 46.026 464.494 46.026C463.054 46.026 461.596 45.954 460.12 45.81C458.68 45.702 457.222 45.558 455.746 45.378C454.306 45.234 452.866 45.09 451.426 44.946C449.986 44.802 448.528 44.73 447.052 44.73C446.872 44.73 446.692 44.748 446.512 44.784C446.368 44.784 446.206 44.802 446.026 44.838L445.54 45V44.46C446.188 43.956 446.8 43.488 447.376 43.056C447.988 42.588 448.69 42.228 449.482 41.976C450.058 41.04 450.562 39.96 450.994 38.736C451.426 37.476 451.822 36.162 452.182 34.794C452.614 33.03 452.938 31.266 453.154 29.502C453.406 27.702 453.532 26.082 453.532 24.642C453.532 24.174 453.478 23.724 453.37 23.292C453.19 22.572 452.866 21.96 452.398 21.456C451.93 20.916 451.336 20.556 450.616 20.376C450.436 20.304 450.238 20.268 450.022 20.268C449.842 20.268 449.662 20.268 449.482 20.268V18.918H460.282C460.066 19.746 459.868 20.574 459.688 21.402C459.544 22.194 459.382 22.986 459.202 23.778C458.482 26.694 457.546 29.664 456.394 32.688C455.278 35.712 453.874 38.628 452.182 41.436L452.29 41.706C452.686 41.634 453.028 41.562 453.316 41.49C453.604 41.382 453.928 41.328 454.288 41.328C455.656 41.328 456.988 41.382 458.284 41.49C459.616 41.598 460.948 41.688 462.28 41.76C462.892 40.86 463.396 39.924 463.792 38.952C464.188 37.98 464.53 36.972 464.818 35.928C464.89 35.604 464.944 35.28 464.98 34.956C465.052 34.632 465.124 34.308 465.196 33.984C465.412 32.688 465.556 31.392 465.628 30.096C465.736 28.764 465.844 27.45 465.952 26.154C466.024 25.434 466.096 24.732 466.168 24.048C466.24 23.328 466.366 22.644 466.546 21.996C466.87 20.736 467.374 19.602 468.058 18.594C468.742 17.55 469.768 16.668 471.136 15.948C471.388 15.804 471.622 15.678 471.838 15.57C472.09 15.462 472.36 15.372 472.648 15.3C472.756 15.264 472.846 15.246 472.918 15.246C473.026 15.21 473.134 15.192 473.242 15.192C473.062 15.696 472.882 16.2 472.702 16.704C472.558 17.172 472.432 17.658 472.324 18.162C472.036 19.35 471.802 20.556 471.622 21.78C471.478 23.004 471.334 24.228 471.19 25.452C471.118 26.172 471.01 26.892 470.866 27.612C470.758 28.296 470.614 28.962 470.434 29.61C469.894 31.806 469.102 33.894 468.058 35.874C467.05 37.854 465.862 39.816 464.494 41.76L464.548 41.868C465.304 41.904 466.042 41.94 466.762 41.976C467.482 41.976 468.22 41.976 468.976 41.976C470.056 41.976 471.136 41.958 472.216 41.922C473.296 41.85 474.358 41.778 475.402 41.706C476.266 39.906 476.914 38.052 477.346 36.144C478.066 33.372 478.606 30.546 478.966 27.666C479.326 24.786 479.704 21.96 480.1 19.188C480.1 19.08 480.118 18.99 480.154 18.918H486.58C486.544 19.35 486.472 19.818 486.364 20.322C486.292 20.79 486.202 21.276 486.094 21.78C485.806 22.968 485.446 24.174 485.014 25.398C484.582 26.586 484.168 27.666 483.772 28.638C482.908 30.906 482.026 33.138 481.126 35.334C480.226 37.53 479.146 39.654 477.886 41.706C479.074 41.526 480.262 41.31 481.45 41.058C482.206 40.878 483.07 40.608 484.042 40.248C485.014 39.888 485.86 39.564 486.58 39.276L486.688 39.384ZM519.127 39.168V39.438C518.659 40.05 518.137 40.734 517.561 41.49C516.985 42.21 516.355 42.894 515.671 43.542C515.023 44.19 514.321 44.73 513.565 45.162C512.809 45.63 511.999 45.864 511.135 45.864C510.451 45.864 509.911 45.666 509.515 45.27C509.155 44.874 508.885 44.406 508.705 43.866C508.525 43.29 508.399 42.696 508.327 42.084C508.291 41.472 508.273 40.932 508.273 40.464C508.273 39.708 508.363 38.934 508.543 38.142C508.759 37.35 508.957 36.594 509.137 35.874C509.425 34.722 509.713 33.624 510.001 32.58C510.325 31.536 510.649 30.474 510.973 29.394H510.703C510.091 30.474 509.209 31.86 508.057 33.552C506.905 35.244 505.609 36.936 504.169 38.628C502.765 40.284 501.289 41.796 499.741 43.164C498.193 44.496 496.717 45.342 495.313 45.702C495.097 45.738 494.881 45.756 494.665 45.756C494.449 45.792 494.251 45.81 494.071 45.81C493.063 45.81 492.289 45.63 491.749 45.27C491.209 44.946 490.813 44.244 490.561 43.164C490.453 42.804 490.381 42.444 490.345 42.084C490.309 41.724 490.291 41.382 490.291 41.058C490.291 40.626 490.345 40.23 490.453 39.87C490.561 39.51 490.669 39.132 490.777 38.736L494.881 25.722C494.989 25.362 495.061 25.092 495.097 24.912C495.169 24.696 495.205 24.498 495.205 24.318C495.205 24.138 495.169 23.976 495.097 23.832C495.061 23.652 495.007 23.418 494.935 23.13C494.611 21.762 493.729 20.88 492.289 20.484C492.109 20.448 491.911 20.43 491.695 20.43C491.515 20.394 491.335 20.376 491.155 20.376H491.101H491.047V18.918H494.341C494.917 18.918 495.493 18.9 496.069 18.864C496.645 18.828 497.221 18.72 497.797 18.54C498.625 18.36 499.417 18.054 500.173 17.622C500.929 17.154 501.685 16.506 502.441 15.678H502.819L502.657 16.488C502.153 18.504 501.559 20.484 500.875 22.428C500.191 24.372 499.525 26.316 498.877 28.26C498.265 29.988 497.653 31.644 497.041 33.228C496.465 34.812 496.177 36.522 496.177 38.358C496.177 38.826 496.267 39.33 496.447 39.87C496.663 40.374 497.041 40.626 497.581 40.626H497.905C498.517 40.446 499.237 39.996 500.065 39.276C500.893 38.52 501.703 37.674 502.495 36.738C503.323 35.802 504.079 34.884 504.763 33.984C505.483 33.084 506.023 32.4 506.383 31.932C507.751 30.096 509.065 28.152 510.325 26.1C511.621 24.048 512.611 21.906 513.295 19.674C513.331 19.566 513.367 19.458 513.403 19.35C513.475 19.206 513.529 19.08 513.565 18.972H518.425C517.489 21.816 516.661 24.462 515.941 26.91C515.509 28.35 515.167 29.538 514.915 30.474C514.663 31.374 514.429 32.256 514.213 33.12C513.997 33.984 513.817 34.776 513.673 35.496C513.529 36.18 513.457 36.702 513.457 37.062C513.457 37.314 513.457 37.566 513.457 37.818C513.457 38.07 513.493 38.322 513.565 38.574C513.781 39.402 514.321 39.924 515.185 40.14C515.293 40.176 515.473 40.194 515.725 40.194C515.977 40.194 516.157 40.194 516.265 40.194C516.589 40.194 517.057 40.068 517.669 39.816C518.317 39.528 518.803 39.312 519.127 39.168ZM552.463 39.168V39.438C552.139 39.87 551.707 40.446 551.167 41.166C550.663 41.886 550.087 42.588 549.439 43.272C548.827 43.956 548.197 44.55 547.549 45.054C546.901 45.558 546.289 45.81 545.713 45.81C545.533 45.81 545.245 45.792 544.849 45.756C544.453 45.756 544.165 45.738 543.985 45.702C543.373 45.522 542.887 45.216 542.527 44.784C542.203 44.352 541.951 43.83 541.771 43.218C541.699 42.894 541.645 42.552 541.609 42.192C541.573 41.832 541.555 41.454 541.555 41.058C541.555 39.33 541.699 37.692 541.987 36.144C542.311 34.596 542.671 32.994 543.067 31.338C542.383 31.374 541.699 31.446 541.015 31.554C540.367 31.626 539.737 31.734 539.125 31.878C536.893 32.454 534.949 33.372 533.293 34.632C531.637 35.892 530.413 37.746 529.621 40.194L528.811 43.164L528.487 44.46C528.487 44.604 528.451 44.784 528.379 45H523.465L528.217 25.722C528.289 25.506 528.343 25.308 528.379 25.128C528.415 24.912 528.433 24.696 528.433 24.48C528.433 24.084 528.379 23.706 528.271 23.346C528.091 22.626 527.749 22.014 527.245 21.51C526.777 20.97 526.183 20.61 525.463 20.43C525.283 20.358 525.103 20.322 524.923 20.322C524.779 20.322 524.617 20.322 524.437 20.322L524.815 18.972H535.075L530.971 34.794H531.241C531.637 34.254 532.087 33.66 532.591 33.012C533.131 32.328 533.689 31.68 534.265 31.068C534.877 30.42 535.507 29.862 536.155 29.394C536.839 28.89 537.523 28.548 538.207 28.368C538.603 28.26 538.981 28.206 539.341 28.206C539.701 28.206 540.061 28.26 540.421 28.368C540.925 28.476 541.411 28.728 541.879 29.124C542.347 29.484 542.815 29.808 543.283 30.096L543.499 29.016C543.931 27.324 544.381 25.65 544.849 23.994C545.317 22.338 545.785 20.664 546.253 18.972H551.545C551.041 20.268 550.519 21.762 549.979 23.454C549.439 25.146 548.971 26.838 548.575 28.53C548.215 30.006 547.873 31.41 547.549 32.742C547.225 34.038 547.063 35.298 547.063 36.522C547.063 37.206 547.135 37.782 547.279 38.25C547.387 38.682 547.549 39.078 547.765 39.438C548.017 39.798 548.377 40.032 548.845 40.14C548.917 40.176 549.043 40.194 549.223 40.194C549.439 40.194 549.601 40.194 549.709 40.194C549.997 40.194 550.447 40.068 551.059 39.816C551.707 39.528 552.175 39.312 552.463 39.168ZM588.379 39.438C588.019 39.906 587.533 40.5 586.921 41.22C586.309 41.904 585.643 42.588 584.923 43.272C584.203 43.92 583.465 44.478 582.709 44.946C581.953 45.414 581.269 45.648 580.657 45.648C580.297 45.648 580.027 45.63 579.847 45.594C579.091 45.378 578.533 45 578.173 44.46C577.813 43.884 577.579 43.254 577.471 42.57C577.363 41.85 577.327 41.112 577.363 40.356C577.399 39.6 577.417 38.916 577.417 38.304V29.826C577.417 29.034 577.417 28.26 577.417 27.504C577.417 26.712 577.327 25.92 577.147 25.128C576.895 24.192 576.625 23.364 576.337 22.644C576.049 21.924 575.473 21.456 574.609 21.24C574.429 21.204 574.231 21.186 574.015 21.186C573.835 21.15 573.655 21.132 573.475 21.132C573.187 21.132 572.863 21.15 572.503 21.186C572.179 21.222 571.873 21.276 571.585 21.348C570.505 21.6 569.461 22.068 568.453 22.752C567.481 23.436 566.581 24.246 565.753 25.182C564.925 26.082 564.205 27.09 563.593 28.206C563.017 29.322 562.585 30.456 562.297 31.608C562.153 32.148 562.027 32.67 561.919 33.174C561.811 33.642 561.757 34.128 561.757 34.632C561.757 35.064 561.811 35.622 561.919 36.306C562.027 36.954 562.117 37.458 562.189 37.818C562.369 38.646 562.729 39.366 563.269 39.978C563.809 40.554 564.547 40.842 565.483 40.842C565.663 40.842 565.879 40.842 566.131 40.842C566.383 40.806 566.635 40.788 566.887 40.788C567.499 40.788 568.183 40.68 568.939 40.464C569.911 40.212 570.901 39.852 571.909 39.384C572.953 38.916 573.889 38.538 574.717 38.25V38.52C574.177 39.276 573.511 40.032 572.719 40.788C571.963 41.508 571.135 42.192 570.235 42.84C569.335 43.488 568.381 44.064 567.373 44.568C566.401 45.072 565.411 45.45 564.403 45.702C563.539 45.918 562.657 46.026 561.757 46.026C561.433 46.026 561.127 46.008 560.839 45.972C560.587 45.936 560.317 45.882 560.029 45.81C559.057 45.558 558.265 45.108 557.653 44.46C557.041 43.812 556.609 43.02 556.357 42.084C556.213 41.508 556.141 40.806 556.141 39.978C556.141 39.258 556.231 38.538 556.411 37.818C556.591 37.062 556.771 36.306 556.951 35.55C557.419 33.606 558.139 31.68 559.111 29.772C560.119 27.864 561.325 26.118 562.729 24.534C564.133 22.95 565.681 21.582 567.373 20.43C569.101 19.242 570.937 18.414 572.881 17.946C573.457 17.802 574.033 17.694 574.609 17.622C575.185 17.55 575.779 17.514 576.391 17.514C576.679 17.514 577.021 17.532 577.417 17.568C577.849 17.568 578.173 17.604 578.389 17.676C579.541 17.964 580.423 18.558 581.035 19.458C581.683 20.322 582.151 21.312 582.439 22.428C582.619 23.04 582.709 23.688 582.709 24.372C582.745 25.02 582.763 25.668 582.763 26.316C582.763 27.576 582.709 28.854 582.601 30.15C582.529 31.41 582.493 32.67 582.493 33.93C582.493 35.334 582.619 36.558 582.871 37.602C583.051 38.214 583.285 38.754 583.573 39.222C583.897 39.654 584.347 39.96 584.923 40.14C584.995 40.14 585.067 40.158 585.139 40.194C585.247 40.194 585.355 40.194 585.463 40.194C585.967 40.194 586.471 40.068 586.975 39.816C587.479 39.564 587.947 39.348 588.379 39.168V39.438Z" fill="#DB156D"/>
</svg>
