<svg width="44" height="40" viewBox="0 0 44 40" fill="none" xmlns="http://www.w3.org/2000/svg">
<path d="M25.4202 6.26882L19.346 18.7705L24.4725 21.2614L30.5468 8.75974L25.4202 6.26882Z" fill="#DB156D"/>
<path d="M15.2822 -3.56279e-05L10.1648 2.51025L19.3251 21.1845L24.4425 18.6742L15.2822 -3.56279e-05Z" fill="#00924F"/>
<path d="M1.1628 12.7747L0 18.355L21.2443 22.7818L22.4071 17.2015L1.1628 12.7747Z" fill="#F6C10B"/>
<path d="M14.0477 30.1963L10.3477 25.8963L17.2477 20.0963L20.0477 17.6963L23.6477 22.1963L20.8477 24.4963L14.0477 30.1963Z" fill="#DB156D"/>
<path d="M19.0657 19.9146L18.9906 36.4146L24.6906 36.4405L24.7657 19.9405L19.0657 19.9146Z" fill="#00924F"/>
<path d="M39.7477 39.1963L22.9477 24.4963L20.0477 22.1963L23.6477 17.6963L26.6477 20.0963L43.5477 34.8963L39.7477 39.1963Z" fill="#DB156D"/>
<path d="M35.197 14.1692L21.2102 17.1479L22.3975 22.7231L36.3843 19.7444L35.197 14.1692Z" fill="#00924F"/>
<path d="M21.8477 23.5961L24.6477 25.8961V22.2961L21.8477 19.9961V23.5961Z" fill="#0C4C6B"/>
<path d="M24.6477 22.2963L28.2477 21.4963L25.3477 19.1963L21.8477 19.9963L24.6477 22.2963Z" fill="#0C4C6B"/>
<path d="M18.9477 22.2963L15.4477 21.4963L18.2477 19.1963L21.8477 19.9963L18.9477 22.2963Z" fill="#0C4C6B"/>
<path d="M18.9477 25.8961L21.8477 23.5961V19.9961L18.9477 22.2961V25.8961Z" fill="#0C4C6B"/>
<path d="M18.2477 19.1965L16.6477 15.8965L20.2477 16.6965L21.8477 19.9965L18.2477 19.1965Z" fill="#0C4C6B"/>
<path d="M25.3477 19.1965L26.9477 15.8965L23.4477 16.6965L21.8477 19.9965L25.3477 19.1965Z" fill="#0C4C6B"/>
<path d="M23.4477 16.6965L21.8477 19.9965L20.2477 16.6965L21.8477 13.3965L23.4477 16.6965Z" fill="#0C4C6B"/>
</svg>
