<svg width="80" height="80" viewBox="0 0 80 80" fill="none" xmlns="http://www.w3.org/2000/svg">
<path fill-rule="evenodd" clip-rule="evenodd" d="M67.8 10.1L68.3333 10C69.2667 10 70 10.7333 70 11.6667V62.0667C70 62.8333 69.5 63.4333 68.8 63.6667L50 70L30 63L12.2 69.9L11.6667 70C10.7333 70 10 69.2667 10 68.3333V17.9333C10 17.1667 10.5 16.5667 11.2 16.3333L30 10L50 17L67.8 10.1ZM46.6667 22.8999L33.3333 18.2333V57.0999L46.6667 61.7666V22.8999ZM16.6667 21.5332L26.6667 18.1666V57.1666L16.6667 61.0332V21.5332ZM53.3333 61.8332L63.3333 58.4666V18.9999L53.3333 22.8666V61.8332Z" fill="url(#paint0_linear)"/>
<defs>
<linearGradient id="paint0_linear" x1="40" y1="10" x2="40" y2="70" gradientUnits="userSpaceOnUse">
<stop stop-color="#DB156D"/>
<stop offset="0.505208" stop-color="#00924F"/>
<stop offset="1" stop-color="#F6C10B"/>
</linearGradient>
</defs>
</svg>
