<svg width="80" height="80" viewBox="0 0 80 80" fill="none" xmlns="http://www.w3.org/2000/svg">
<path fill-rule="evenodd" clip-rule="evenodd" d="M76.6667 22.3333C76.6712 20.7956 76.1276 19.3065 75.1333 18.1333L69.0667 10.9C68.5993 10.3316 67.9025 10.0016 67.1667 10H66.1667C65.4308 10.0016 64.7341 10.3316 64.2667 10.9L60 16L55.7333 10.9C55.266 10.3316 54.5692 10.0016 53.8333 10H52.8333C52.0975 10.0016 51.4007 10.3316 50.9333 10.9L44.8667 18.1333C43.8724 19.3065 43.3288 20.7956 43.3333 22.3333V26.6667H23.3333V22.3333C23.3379 20.7956 22.7942 19.3065 21.8 18.1333L15.7333 10.9C15.266 10.3316 14.5692 10.0016 13.8333 10H12.8333C12.0975 10.0016 11.4007 10.3316 10.9333 10.9L4.86667 18.1333C3.87244 19.3065 3.32881 20.7956 3.33334 22.3333V66.6667C3.33334 68.5076 4.82573 70 6.66667 70H73.3333C75.1743 70 76.6667 68.5076 76.6667 66.6667V22.3333ZM63.3333 40H70V63.3333H63.3333V40ZM9.99999 63.3333H56.6667V23.3333H50V31.6667C50 32.5871 49.2538 33.3333 48.3333 33.3333H18.3333C17.4128 33.3333 16.6667 32.5871 16.6667 31.6667V23.3333H9.99999V63.3333ZM63.3333 33.3333V23.3333H70V33.3333H63.3333ZM21.6667 46.6667H18.3333C17.4128 46.6667 16.6667 45.9205 16.6667 45V41.6667C16.6667 40.7462 17.4128 40 18.3333 40H21.6667C22.5871 40 23.3333 40.7462 23.3333 41.6667V45C23.3333 45.9205 22.5871 46.6667 21.6667 46.6667ZM45 46.6667H48.3333C49.2538 46.6667 50 45.9205 50 45V41.6667C50 40.7462 49.2538 40 48.3333 40H45C44.0795 40 43.3333 40.7462 43.3333 41.6667V45C43.3333 45.9205 44.0795 46.6667 45 46.6667ZM35 46.6667H31.6667C30.7462 46.6667 30 45.9205 30 45V41.6667C30 40.7462 30.7462 40 31.6667 40H35C35.9205 40 36.6667 40.7462 36.6667 41.6667V45C36.6667 45.9205 35.9205 46.6667 35 46.6667Z" fill="url(#paint0_linear)"/>
<defs>
<linearGradient id="paint0_linear" x1="40" y1="10" x2="40" y2="70" gradientUnits="userSpaceOnUse">
<stop stop-color="#DB156D"/>
<stop offset="0.505208" stop-color="#00924F"/>
<stop offset="1" stop-color="#F6C10B"/>
</linearGradient>
</defs>
</svg>
