<svg width="80" height="80" viewBox="0 0 80 80" fill="none" xmlns="http://www.w3.org/2000/svg">
<g id="icon/communication/list_alt_24px">
<path id="icon/communication/list_alt_24px_2" fill-rule="evenodd" clip-rule="evenodd" d="M67 10H13C11.3333 10 10 11.3333 10 13V67C10 68.3333 11.3333 70 13 70H67C68.3333 70 70 68.3333 70 67V13C70 11.3333 68.3333 10 67 10ZM30 23.3333H23.3333V30H30V23.3333ZM56.6667 23.3333H36.6667V30H56.6667V23.3333ZM56.6667 36.6667H36.6667V43.3333H56.6667V36.6667ZM36.6667 50H56.6667V56.6667H36.6667V50ZM23.3333 36.6667H30V43.3333H23.3333V36.6667ZM30 50H23.3333V56.6667H30V50ZM16.6667 63.3333H63.3333V16.6667H16.6667V63.3333Z" fill="url(#paint0_linear)"/>
</g>
<defs>
<linearGradient id="paint0_linear" x1="40" y1="10" x2="40" y2="70" gradientUnits="userSpaceOnUse">
<stop stop-color="#DB156D"/>
<stop offset="0.505208" stop-color="#00924F"/>
<stop offset="1" stop-color="#F6C10B"/>
</linearGradient>
</defs>
</svg>
