<svg width="80" height="80" viewBox="0 0 80 80" fill="none" xmlns="http://www.w3.org/2000/svg">
<path fill-rule="evenodd" clip-rule="evenodd" d="M70 16.6667C70 12.9848 67.0152 10 63.3333 10H16.6667C12.9848 10 10 12.9848 10 16.6667V63.3333C10 67.0152 12.9848 70 16.6667 70H63.3333C67.0152 70 70 67.0152 70 63.3333V16.6667ZM63.3333 56.0667C63.3423 56.5144 63.1706 56.947 62.8571 57.2668C62.5435 57.5866 62.1145 57.7668 61.6666 57.7667C61.1584 57.7693 60.6778 57.5352 60.3666 57.1333L47.0333 40.4667C46.7221 40.0648 46.2416 39.8307 45.7333 39.8333C45.2238 39.8254 44.7411 40.0606 44.4333 40.4667L36.8 50.0667C36.4922 50.4727 36.0094 50.7079 35.5 50.7C34.9766 50.6949 34.4847 50.449 34.1666 50.0333L30.8333 45.5C30.4986 45.0868 29.9983 44.8428 29.4666 44.8333C28.9433 44.8385 28.4514 45.0844 28.1333 45.5L19.6666 57.1C19.3592 57.5283 18.8604 57.7777 18.3333 57.7667C17.8885 57.7758 17.4592 57.6032 17.1447 57.2886C16.8301 56.9741 16.6575 56.5448 16.6666 56.1V16.6667H63.3333V56.0667ZM36.6667 31.6667C36.6667 34.4281 34.4281 36.6667 31.6667 36.6667C28.9052 36.6667 26.6667 34.4281 26.6667 31.6667C26.6667 28.9052 28.9052 26.6667 31.6667 26.6667C34.4281 26.6667 36.6667 28.9052 36.6667 31.6667Z" fill="url(#paint0_linear)"/>
<defs>
<linearGradient id="paint0_linear" x1="40" y1="10" x2="40" y2="70" gradientUnits="userSpaceOnUse">
<stop stop-color="#DB156D"/>
<stop offset="0.505208" stop-color="#00924F"/>
<stop offset="1" stop-color="#F6C10B"/>
</linearGradient>
</defs>
</svg>
