<svg width="101" height="101" viewBox="0 0 101 101" fill="none" xmlns="http://www.w3.org/2000/svg">
<path d="M40.4001 73.2249L70.7001 50.4999L40.4001 27.7749V73.2249Z" fill="white"/>
<path d="M50.4999 0C22.5988 0 0 22.5988 0 50.4999C0 78.4009 22.5988 101 50.4999 101C78.4009 101 101 78.4012 101 50.4999C101 22.5986 78.4012 0 50.4999 0ZM50.4999 90.8999C28.2294 90.8999 10.0998 72.7704 10.0998 50.4999C10.0998 28.2294 28.2294 10.1001 50.4999 10.1001C72.7704 10.1001 90.8999 28.2294 90.8999 50.4999C90.8999 72.7704 72.7704 90.8999 50.4999 90.8999Z" fill="white"/>
</svg>
