<svg width="36" height="36" viewBox="0 0 36 36" fill="none" xmlns="http://www.w3.org/2000/svg">
<g id="icon/action/search_24px">
<path id="icon/action/search_24px_2" fill-rule="evenodd" clip-rule="evenodd" d="M22.4473 21.3823H23.6323L31.1173 28.8823L28.8823 31.1173L21.3823 23.6323V22.4473L20.9773 22.0273C19.2673 23.4973 17.0473 24.3823 14.6323 24.3823C9.24732 24.3823 4.88232 20.0173 4.88232 14.6323C4.88232 9.24732 9.24732 4.88232 14.6323 4.88232C20.0173 4.88232 24.3823 9.24732 24.3823 14.6323C24.3823 17.0473 23.4973 19.2673 22.0273 20.9773L22.4473 21.3823ZM7.88232 14.6323C7.88232 18.3673 10.8973 21.3823 14.6323 21.3823C18.3673 21.3823 21.3823 18.3673 21.3823 14.6323C21.3823 10.8973 18.3673 7.88232 14.6323 7.88232C10.8973 7.88232 7.88232 10.8973 7.88232 14.6323Z" fill="#00924F"/>
</g>
</svg>
