<svg width="36" height="36" viewBox="0 0 36 36" fill="none" xmlns="http://www.w3.org/2000/svg">
<path d="M35.9789 14.9832C35.9648 14.259 35.9086 13.3449 35.8102 12.241C35.7117 11.1371 35.5641 10.1457 35.3813 9.28086C35.1703 8.30352 34.6992 7.48086 33.982 6.81289C33.2648 6.14492 32.4352 5.7582 31.4789 5.6457C28.5047 5.3082 24.0117 5.14648 18 5.14648C11.9883 5.14648 7.49531 5.31523 4.52109 5.6457C3.57188 5.75117 2.74219 6.13789 2.03203 6.81289C1.32187 7.48086 0.857812 8.30352 0.646875 9.28086C0.442969 10.1527 0.295312 11.1371 0.196875 12.241C0.0984375 13.3449 0.0421875 14.259 0.028125 14.9832C0.00703125 15.7074 0 16.7129 0 17.9996C0 19.2863 0.00703125 20.2918 0.0210938 21.016C0.0351562 21.7402 0.0914063 22.6543 0.189844 23.7582C0.288281 24.8621 0.435938 25.8535 0.61875 26.7184C0.829688 27.6957 1.30078 28.5184 2.01797 29.1863C2.73516 29.8543 3.57188 30.241 4.52109 30.3535C7.49531 30.691 11.9883 30.8527 18 30.8527C24.0117 30.8527 28.5047 30.684 31.4789 30.3535C32.4281 30.248 33.2578 29.8613 33.968 29.1863C34.6781 28.5184 35.1422 27.6957 35.3531 26.7184C35.557 25.8465 35.7047 24.8621 35.8031 23.7582C35.9016 22.6543 35.9578 21.7402 35.9719 21.016C35.9859 20.2918 35.993 19.2863 35.993 17.9996C36 16.7129 35.993 15.7074 35.9789 14.9832ZM25.1086 19.0824L14.8219 25.509C14.632 25.6426 14.407 25.7129 14.1398 25.7129C13.9359 25.7129 13.732 25.6566 13.5141 25.5512C13.0711 25.3121 12.8531 24.9324 12.8531 24.4262V11.573C12.8531 11.0668 13.0711 10.6871 13.5141 10.448C13.9711 10.209 14.407 10.223 14.8219 10.4902L25.1086 16.9168C25.5094 17.1418 25.7133 17.5074 25.7133 17.9996C25.7133 18.4918 25.5164 18.8574 25.1086 19.0824Z" fill="white"/>
</svg>
